<?xml version="1.0" encoding="UTF-8" standalone="no"?>
<!-- Created with Inkscape (http://www.inkscape.org/) -->

<svg
   xmlns:dc="http://purl.org/dc/elements/1.1/"
   xmlns:cc="http://creativecommons.org/ns#"
   xmlns:rdf="http://www.w3.org/1999/02/22-rdf-syntax-ns#"
   xmlns:svg="http://www.w3.org/2000/svg"
   xmlns="http://www.w3.org/2000/svg"
   xmlns:sodipodi="http://sodipodi.sourceforge.net/DTD/sodipodi-0.dtd"
   xmlns:inkscape="http://www.inkscape.org/namespaces/inkscape"
   width="210mm"
   height="297mm"
   viewBox="0 0 210 297"
   version="1.1"
   id="svg5586"
   inkscape:version="0.92.2 (5c3e80d, 2017-08-06)"
   sodipodi:docname="chart.svg">
  <defs
     id="defs5580" />
  <sodipodi:namedview
     id="base"
     pagecolor="#ffffff"
     bordercolor="#666666"
     borderopacity="1.0"
     inkscape:pageopacity="0.0"
     inkscape:pageshadow="2"
     inkscape:zoom="0.7"
     inkscape:cx="606.18254"
     inkscape:cy="728.54714"
     inkscape:document-units="mm"
     inkscape:current-layer="layer1"
     showgrid="false"
     inkscape:window-width="1920"
     inkscape:window-height="1017"
     inkscape:window-x="-8"
     inkscape:window-y="-8"
     inkscape:window-maximized="1" />
  <metadata
     id="metadata5583">
    <rdf:RDF>
      <cc:Work
         rdf:about="">
        <dc:format>image/svg+xml</dc:format>
        <dc:type
           rdf:resource="http://purl.org/dc/dcmitype/StillImage" />
        <dc:title></dc:title>
      </cc:Work>
    </rdf:RDF>
  </metadata>
  <g
     inkscape:label="Layer 1"
     inkscape:groupmode="layer"
     id="layer1">
    <path
       style="fill:#000000;stroke-width:0.35277778"
       d="m -21.690911,174.98039 c 0,-0.16724 1.706562,-0.40985 3.792361,-0.53914 6.081761,-0.37698 11.7686702,-1.22408 13.8845043,-2.06819 0.6582093,-0.26259 2.0565428,-0.43291 3.10740794,-0.37848 1.3490575,0.0699 2.30407986,-0.10174 3.24913936,-0.58387 0.736163,-0.37556 1.555257,-0.68284 1.820207,-0.68284 0.26495,0 0.854569,-0.39688 1.310269,-0.88195 0.983231,-1.0466 1.314352,-1.07628 2.430759,-0.21787 0.925065,0.71127 1.804219,0.56554 4.3200504,-0.71614 0.705517,-0.35942 1.51959,-0.65349 1.809055,-0.65349 0.289465,0 0.76865,-0.35719 1.064856,-0.79375 0.415001,-0.61164 0.637075,-0.6989 0.967963,-0.38034 0.440432,0.42402 0.960003,0.34934 2.403305,-0.34543 0.680322,-0.32748 0.88464,-0.29091 1.164058,0.20838 0.186397,0.33307 0.530952,0.60559 0.765679,0.60559 0.234728,0 0.627338,0.32114 0.872466,0.71366 0.385684,0.61757 0.551472,0.65448 1.231388,0.27412 0.432135,-0.24175 1.1032,-0.48051 1.491255,-0.53058 0.388056,-0.0501 1.302085,-0.19093 2.031178,-0.31303 0.842931,-0.14116 1.742119,-0.0364 2.469445,0.28783 0.994879,0.44344 4.085202,0.53954 7.670211,0.23852 1.035322,-0.0869 2.821534,0.30085 3.330145,0.72296 0.284102,0.23578 0.842821,0.32514 1.241591,0.19858 0.52851,-0.16774 1.020131,0.065 1.813711,0.85855 l 1.088676,1.08868 0.698264,-0.8877 c 0.384048,-0.48824 0.905026,-0.8877 1.157732,-0.8877 0.252705,0 0.552803,-0.46669 0.66688,-1.03708 0.198724,-0.99361 0.274338,-1.03081 1.804018,-0.88742 0.878131,0.0823 1.907007,0.34352 2.286391,0.58045 0.561538,0.35069 0.808246,0.32763 1.326886,-0.12401 0.450081,-0.39193 1.204383,-0.52578 2.569654,-0.45597 2.230307,0.11405 3.019817,-0.20366 3.304706,-1.32986 0.232992,-0.92106 2.01894,-1.83681 2.984543,-1.53035 0.507026,0.16093 0.999864,-0.30286 2.212488,-2.08207 1.506005,-2.20968 2.089316,-2.74291 2.089316,-1.90994 0,0.28141 0.146568,0.27433 0.506617,-0.0245 0.393492,-0.32657 0.688887,-0.31931 1.322917,0.0325 0.448962,0.24913 0.895674,0.46639 0.992688,0.4828 0.09701,0.0164 0.535982,0.15256 0.975484,0.30255 0.559678,0.191 1.153481,0.0537 1.981916,-0.45831 0.650554,-0.40207 1.660585,-0.73103 2.244517,-0.73103 0.583932,0 1.259318,-0.23812 1.500861,-0.52916 0.241543,-0.29105 0.63325,-0.52917 0.870465,-0.52917 0.237211,0 0.718626,-0.3175 1.069813,-0.70556 0.710403,-0.78498 1.234722,-0.91452 1.234722,-0.30503 0,0.22028 0.414447,0.78461 0.92099,1.25406 0.839876,0.77837 0.974369,0.80524 1.527083,0.30504 0.766957,-0.69409 1.785261,-0.71029 1.785261,-0.0284 0,0.55129 1.714821,1.59656 2.619255,1.59656 0.587699,0 1.607411,1.70433 1.625296,2.7165 0.01065,0.60258 0.03507,0.60347 0.479866,0.0175 0.257754,-0.33955 0.732882,-0.61736 1.055843,-0.61736 0.322961,0 0.742901,-0.40952 0.9332,-0.91005 l 0.345997,-0.91004 1.417518,1.12269 c 1.169511,0.92628 1.510125,1.04584 1.946849,0.68339 0.29114,-0.24162 0.6232,-0.34545 0.73793,-0.23072 0.11473,0.11472 0.73824,-0.353 1.38559,-1.03939 0.64735,-0.68639 1.32934,-1.15382 1.51554,-1.03874 0.18619,0.11507 0.82066,-0.0675 1.40992,-0.40566 0.87021,-0.49944 1.26494,-0.54184 2.10216,-0.22582 1.207135,0.45565 2.656975,-0.0222 3.734565,-1.2308 0.36962,-0.41456 0.95774,-0.75375 1.30693,-0.75375 0.44871,0 0.70421,-0.36949 0.87127,-1.25994 0.12999,-0.69296 0.62719,-1.72441 1.10487,-2.2921 0.6991,-0.83083 1.0518,-0.98846 1.8081,-0.80809 0.51676,0.12325 1.14504,0.38621 1.39617,0.58438 0.33664,0.26564 0.70734,0.0606 1.41111,-0.78031 0.84852,-1.01393 1.05908,-1.10069 1.89618,-0.78127 0.51792,0.19763 1.0959,0.63492 1.2844,0.97176 0.32103,0.57364 0.3803,0.57488 0.93562,0.0195 0.69419,-0.69419 1.11026,-0.74843 1.45555,-0.18974 0.15926,0.25769 0.4254,0.0668 0.73765,-0.52916 0.26867,-0.51277 0.63988,-0.93231 0.82492,-0.93231 0.18503,0 0.81092,-0.91282 1.39084,-2.02848 1.81254,-3.48695 3.2009,-4.54043 3.74102,-2.83866 0.24308,0.76588 0.25879,0.76216 1.06815,-0.25287 l 0.82144,-1.03018 0.54312,1.29987 c 0.29872,0.71493 0.54313,1.47005 0.54313,1.67804 0,0.20799 0.34867,1.04652 0.77483,1.86341 0.62674,1.20138 0.80256,1.35041 0.91991,0.7797 0.0798,-0.38806 0.32642,-0.92642 0.54808,-1.19637 0.22165,-0.26995 0.7209,-1.6987 1.10943,-3.175 0.62494,-2.37461 0.7944,-2.67204 1.46927,-2.57891 0.53261,0.0735 0.94677,-0.20607 1.37224,-0.92633 0.61089,-1.03416 1.83944,-1.31584 2.87639,-0.65951 0.30091,0.19046 0.64859,-0.48895 1.17677,-2.29955 1.42249,-4.87632 1.60948,-5.20904 3.19739,-5.68939 0.38248,-0.1157 0.64867,-0.78044 0.81519,-2.03573 0.16069,-1.21136 0.47732,-2.02506 0.90438,-2.32419 0.36142,-0.25314 0.85103,-1.05509 1.08802,-1.78209 0.23699,-0.727 0.59331,-1.42705 0.79183,-1.55566 0.39612,-0.25665 1.08289,-8.43935 1.48299,-17.66963 0.14087,-3.24997 0.37912,-5.90903 0.52944,-5.90903 0.28333,0 1.40693,5.56929 1.40566,6.96736 -3.5e-4,0.43656 0.13526,0.79375 0.30145,0.79375 0.16619,0 0.41149,-1.46844 0.5451,-3.26319 0.24726,-3.32114 0.81408,-5.90903 1.29424,-5.90903 0.14626,0 0.37332,0.63568 0.50459,1.41261 0.13126,0.77694 0.36336,1.33554 0.51578,1.24134 0.28008,-0.1731 0.85515,-4.4257 1.27723,-9.444918 0.12645,-1.503715 0.34137,-2.734028 0.47762,-2.734028 0.13624,0 0.58001,0.382182 0.98616,0.849293 0.59012,0.678694 0.85639,1.830211 1.32562,5.732638 0.32295,2.685845 0.80317,6.153345 1.06716,7.705565 0.26399,1.55222 0.59461,4.01285 0.7347,5.46806 0.14009,1.4552 0.32193,2.44739 0.40407,2.20486 0.26231,-0.77444 0.73269,-0.47456 0.97319,0.62044 0.40173,1.82907 0.76647,0.85406 1.01775,-2.72059 0.13325,-1.89575 0.37546,-3.57999 0.53824,-3.74277 0.3743,-0.37431 1.00228,1.40238 1.30665,3.69681 0.12973,0.97798 0.44811,1.84732 0.7139,1.94931 0.28874,0.1108 0.49373,0.76596 0.51489,1.64565 0.0193,0.80386 0.16227,1.85844 0.31762,2.34351 l 0.28244,0.88194 0.0352,-1.00788 c 0.0246,-0.70345 0.18217,-0.95147 0.52186,-0.82112 0.36617,0.14051 0.54615,-0.33878 0.72679,-1.93543 0.26417,-2.33494 0.74287,-3.85597 1.32723,-4.21712 0.20896,-0.12914 0.52899,-1.958 0.7112,-4.06412 0.20785,-2.40258 0.51499,-4.01866 0.82434,-4.33749 0.27118,-0.27949 0.56747,-0.43375 0.65842,-0.3428 0.0909,0.091 0.50051,2.46275 0.91013,5.27066 0.40962,2.80792 0.8946,5.25611 1.07775,5.44044 0.20965,0.211 0.333,0.11299 0.333,-0.26458 0,-0.32985 0.15875,-0.59972 0.35277,-0.59972 0.19403,0 0.36193,0.59531 0.37311,1.32291 0.0112,0.72761 0.14795,1.95792 0.30393,2.73403 l 0.2836,1.41111 0.43614,-1.14653 c 0.56157,-1.47628 0.93681,-1.45218 1.22398,0.0786 0.12641,0.67382 0.43935,1.34851 0.69542,1.4993 0.32215,0.18971 0.57474,1.82628 0.81992,5.31222 0.19489,2.77093 0.45903,5.14272 0.58697,5.27067 0.71379,0.71379 1.92364,-3.06627 1.97272,-6.16357 0.004,-0.24254 0.14745,-0.44098 0.31912,-0.44098 0.17167,0 0.41917,0.91282 0.55,2.02848 0.46223,3.9418 0.97748,6.43303 1.29051,6.23957 0.17424,-0.10769 0.31924,-0.46424 0.32221,-0.79234 0.003,-0.3281 0.16462,-0.83467 0.35923,-1.12571 0.3086,-0.46152 0.40034,-0.45024 0.71769,0.0882 0.52771,0.89539 0.83088,0.76998 1.49246,-0.61736 0.32384,-0.6791 0.72011,-1.23473 0.88059,-1.23473 0.34791,0 1.02593,2.62261 1.34526,5.20348 0.13975,1.12952 0.40201,1.85208 0.67222,1.85208 0.27661,0 0.53249,0.76209 0.68107,2.02847 0.1309,1.11566 0.32684,2.33214 0.43544,2.7033 0.17875,0.61095 0.22851,0.6193 0.52573,0.0882 0.64634,-1.15493 0.92576,-0.53393 1.36304,3.02934 0.24406,1.98879 0.57945,3.76679 0.74531,3.95112 0.18006,0.20011 0.30156,0.0935 0.30156,-0.26459 0,-0.32984 0.21286,-0.59972 0.47303,-0.59972 0.28242,0 0.64131,-0.7463 0.89066,-1.85208 0.60812,-2.69687 0.95523,-3.10671 1.78967,-2.11316 l 0.66959,0.79727 0.23869,-1.08674 c 0.14558,-0.66285 0.41055,-1.02079 0.67931,-0.91765 0.3013,0.11562 0.57391,-0.55429 0.86215,-2.11862 0.23184,-1.25824 0.73286,-2.86859 1.11338,-3.57855 0.38052,-0.70997 0.69402,-1.61071 0.69667,-2.00163 0.007,-1.09536 0.39572,-2.29828 0.74188,-2.29828 0.1714,0 0.31785,0.35718 0.32544,0.79375 0.0116,0.66584 0.0941,0.609 0.51214,-0.35278 0.80672,-1.85606 1.39376,-1.43382 1.9619,1.41111 0.39598,1.98287 0.63781,2.53703 1.07608,2.46593 0.3684,-0.0598 0.68905,0.3089 0.9205,1.05833 0.37959,1.22909 0.43714,1.15764 1.13389,-1.40759 0.27379,-1.00804 0.60488,-1.50421 1.01043,-1.51426 0.37752,-0.009 0.9913,-0.79682 1.64051,-2.1047 1.82892,-3.68451 2.63274,-3.13377 3.72466,2.55193 0.54422,2.83378 1.04986,4.48272 1.60561,5.23599 l 0.81122,1.09955 0.11477,-0.97545 c 0.12148,-1.03262 0.9967,-1.65561 0.9967,-0.70947 0,0.30557 0.3175,0.75385 0.70555,0.9962 0.38806,0.24234 0.70556,0.77947 0.70556,1.19362 0,0.41414 0.0992,1.24908 0.22049,1.85541 0.17267,0.86338 0.40216,1.10243 1.05833,1.10243 0.55338,0 0.83785,0.20362 0.83785,0.59972 0,0.83526 0.4513,0.22923 1.23472,-1.65805 0.86604,-2.08631 1.03258,-2.24967 1.84836,-1.81308 0.4881,0.26122 0.80434,0.25399 1.0831,-0.0248 0.28976,-0.28976 0.48061,-0.16515 0.72284,0.47199 0.18103,0.47613 0.56672,1.06287 0.85711,1.30386 0.29037,0.24099 0.71679,0.89404 0.94758,1.45122 0.23079,0.55717 0.72411,1.09267 1.09628,1.18999 0.42337,0.11072 0.67741,0.48646 0.67864,1.00373 10e-4,0.45473 0.1673,1.42209 0.36936,2.1497 0.30133,1.08503 0.52851,1.32291 1.2634,1.32291 0.6716,0 0.99605,-0.26505 1.29548,-1.05833 0.48463,-1.28392 1.30313,-1.39471 1.30313,-0.17639 0,0.48507 0.32692,1.20887 0.7265,1.60845 l 0.7265,0.7265 0.7451,-0.94725 c 0.69234,-0.88016 0.7771,-0.90349 1.19683,-0.32947 0.72688,0.99407 1.43525,0.37808 1.69177,-1.47114 0.27704,-1.99726 0.86728,-3.64403 1.3061,-3.64403 0.40637,0 0.39948,0.6086 -0.01,0.86152 -0.17585,0.10868 -0.42908,1.03086 -0.56274,2.04929 -0.13365,1.01843 -0.46969,2.20888 -0.74674,2.64544 -0.52457,0.8266 -1.89857,1.10123 -1.89857,0.37948 0,-0.22785 -0.38182,-0.0556 -0.84848,0.38283 -0.81534,0.76597 -0.88424,0.77368 -1.76389,0.19731 -0.50347,-0.32989 -0.92044,-0.93873 -0.92658,-1.35297 -0.0106,-0.71637 -0.0444,-0.70866 -0.69193,0.15786 -1.31972,1.76614 -3.53024,0.53118 -3.53024,-1.97223 0,-0.46838 -0.29733,-1.1356 -0.66072,-1.4827 -0.3634,-0.34711 -0.91579,-1.10736 -1.22754,-1.68944 -0.78344,-1.4628 -1.96389,-2.79184 -2.23707,-2.51865 -0.12493,0.12492 -0.5143,-0.0327 -0.86528,-0.35037 -0.60212,-0.54492 -0.67551,-0.49021 -1.30046,0.96937 -0.36428,0.85078 -0.77539,1.90406 -0.91357,2.34062 -0.31078,0.98184 -0.76671,1.01371 -1.26203,0.0882 -0.20768,-0.38805 -0.68649,-0.70555 -1.06402,-0.70555 -0.44817,0 -0.74999,-0.30612 -0.86954,-0.88195 -0.10071,-0.48507 -0.27525,-1.31761 -0.38786,-1.85011 -0.40112,-1.89673 -1.44216,-2.46338 -1.6239,-0.88391 -0.12359,1.07409 -0.71857,1.19218 -0.99357,0.19721 -0.097,-0.351 -0.44097,-1.03506 -0.76435,-1.52013 -0.32338,-0.48507 -0.91973,-2.46944 -1.32522,-4.40972 -0.4055,-1.94028 -0.81862,-3.88497 -0.91807,-4.32153 -0.0994,-0.43656 -0.38274,-0.79375 -0.62955,-0.79375 -0.49735,0 -2.36003,3.43863 -2.36003,4.35677 0,0.67492 -0.3947,0.75186 -0.95952,0.18705 -0.29158,-0.29159 -0.49437,-0.0374 -0.77415,0.97014 -0.20848,0.75086 -0.37995,1.64302 -0.38103,1.98257 -0.002,0.82208 -0.94771,0.78808 -1.47297,-0.053 -0.23025,-0.36869 -0.61749,-0.59405 -0.86051,-0.50079 -0.45375,0.17412 -1.0011,-1.31302 -1.42209,-3.86375 -0.31384,-1.90152 -0.7487,-1.93847 -1.02632,-0.0872 -0.26448,1.76369 -0.39327,1.8803 -1.07899,0.97697 -0.43458,-0.57248 -0.46947,-0.56044 -0.47987,0.16553 -0.006,0.43058 -0.32491,1.38472 -0.70832,2.12029 -0.3834,0.73558 -0.88817,2.5665 -1.12172,4.06872 -0.33302,2.14205 -0.54414,2.71208 -0.9786,2.6422 -0.35623,-0.0573 -0.59611,0.22571 -0.67204,0.79284 -0.19596,1.46387 -0.66311,1.55064 -1.10701,0.20562 -0.2306,-0.69874 -0.54256,-1.19426 -0.69323,-1.10114 -0.15067,0.0931 -0.47707,1.12646 -0.72533,2.29631 -0.26593,1.25312 -0.63624,2.12699 -0.90133,2.12699 -0.24993,0 -0.5558,0.62648 -0.68805,1.40926 -0.13095,0.7751 -0.38303,1.49884 -0.56017,1.60832 -0.17715,0.10948 -0.32209,0.14397 -0.32209,0.0766 0,-0.0673 -0.23685,-2.02139 -0.52634,-4.34235 -0.2895,-2.32096 -0.52762,-4.34836 -0.52917,-4.50533 -0.001,-0.15697 -0.16852,-0.18299 -0.37105,-0.0578 -0.72761,0.44968 -1.37206,-0.63982 -1.60705,-2.71687 -0.13416,-1.18583 -0.43579,-2.1903 -0.68663,-2.28656 -0.25948,-0.0996 -0.62073,-1.39307 -0.86021,-3.08016 -0.50764,-3.57618 -0.8448,-4.2583 -1.44916,-2.93187 -0.43868,0.9628 -1.70676,1.33075 -1.76027,0.51077 -0.0158,-0.24254 -0.25441,0.075 -0.53018,0.70555 -0.77319,1.768 -1.44822,1.45456 -1.89937,-0.88194 -0.21542,-1.11566 -0.4973,-2.42535 -0.62639,-2.91042 -0.21796,-0.819 -0.24402,-0.79637 -0.36516,0.31709 -0.14996,1.37847 -1.01072,2.85791 -1.66278,2.85791 -0.90974,0 -1.17751,-0.99977 -1.553,-5.7984 -0.21159,-2.70406 -0.50933,-5.00593 -0.66165,-5.11528 -0.15232,-0.10935 -0.44237,-0.58452 -0.64457,-1.05593 -0.35022,-0.81653 -0.3895,-0.77895 -0.82983,0.79375 -0.25422,0.90798 -0.58942,1.65086 -0.7449,1.65086 -0.15548,0 -0.39239,-1.25756 -0.52646,-2.79459 -0.18295,-2.09729 -0.35968,-2.75012 -0.70827,-2.61635 -0.60339,0.23154 -1.01109,-1.34132 -1.78721,-6.89482 -0.6789,-4.85786 -0.95855,-4.79444 -1.33381,0.30249 -0.19002,2.58098 -0.39484,3.48113 -0.89894,3.95077 -0.64855,0.60422 -0.84207,1.40959 -1.28307,5.33961 -0.16649,1.48365 -0.35783,2.00054 -0.69297,1.87194 -0.33149,-0.1272 -0.53111,0.36773 -0.70291,1.74276 -0.13197,1.05623 -0.35779,1.92042 -0.50182,1.92042 -0.26395,0 -0.7133,-3.40245 -0.71733,-5.43161 -0.001,-0.60213 -0.24081,-1.55235 -0.53246,-2.1116 -0.29166,-0.55925 -0.62942,-1.6705 -0.75058,-2.46944 -0.31633,-2.08602 -0.80733,-2.82772 -0.82073,-1.2398 -0.026,3.07977 -0.46598,5.608 -0.97596,5.608 -0.28156,0 -0.59449,-0.31571 -0.6954,-0.70159 -0.22266,-0.85144 -0.80881,-0.58356 -0.80881,0.36963 0,0.37661 -0.1258,0.68474 -0.27955,0.68474 -0.15375,0 -0.54904,-2.34156 -0.87841,-5.20347 -1.00213,-8.7075 -2.23944,-17.583505 -2.51279,-18.025791 -0.53118,-0.859463 -0.82433,0.01868 -1.06815,3.199644 -0.39912,5.207137 -0.99134,8.187537 -1.65185,8.313087 -0.39238,0.0746 -0.65539,-0.25404 -0.8443,-1.05493 -0.26628,-1.12892 -0.28293,-1.10598 -0.56382,0.77701 -0.15919,1.06716 -0.41426,3.04986 -0.56682,4.40602 -0.20989,1.86587 -0.4186,2.49266 -0.85791,2.57642 -0.46867,0.0893 -0.6302,-0.31783 -0.83821,-2.11296 -0.48528,-4.18792 -0.76082,-3.58175 -1.00485,2.21053 -0.35667,8.46607 -0.90534,14.17732 -1.4207,14.78858 -0.24707,0.29304 -0.65897,1.06226 -0.91534,1.70938 -0.25637,0.64711 -0.69925,1.4097 -0.98419,1.69464 -0.28493,0.28493 -0.69664,1.42235 -0.91489,2.52759 -0.32482,1.64483 -0.53624,2.02938 -1.16496,2.1189 -1.10209,0.15692 -1.35637,0.59108 -2.3429,4.00015 -1.09774,3.79333 -1.57581,4.75031 -2.10749,4.21863 -0.44909,-0.4491 -2.36621,-0.53368 -2.36621,-0.1044 0,0.56184 -1.42443,1.80315 -1.87205,1.63139 -0.31669,-0.12153 -0.63962,0.59056 -1.05758,2.33206 -0.33092,1.37885 -0.83901,2.74434 -1.12908,3.03441 -0.29007,0.29006 -0.52983,0.87324 -0.5328,1.29595 -0.006,0.78609 -0.56013,1.93964 -0.78863,1.64027 -0.18554,-0.24308 -1.9583,-4.9703 -2.20993,-5.89299 l -0.21489,-0.78793 -0.81156,0.94349 -0.81155,0.94349 -0.44903,-0.86111 c -0.24696,-0.47362 -0.51329,-0.93366 -0.59185,-1.02233 -0.24954,-0.28167 -1.91556,1.86282 -2.80676,3.61284 -0.47272,0.92826 -1.15173,1.97998 -1.5089,2.33716 -0.35718,0.35717 -0.71653,0.85077 -0.79857,1.09687 -0.11632,0.34898 -0.31838,0.35689 -0.91799,0.036 -0.65049,-0.34813 -0.83744,-0.30162 -1.21452,0.30219 -0.57578,0.92196 -1.07992,0.90492 -1.51523,-0.0512 -0.19154,-0.42069 -0.62322,-0.93403 -0.9593,-1.14075 -0.4971,-0.30576 -0.79317,-0.16285 -1.5875,0.76627 -0.97029,1.13493 -0.98533,1.13898 -2.38755,0.64326 -1.70669,-0.60334 -2.12751,-0.34138 -2.70598,1.68449 -0.51865,1.81636 -0.90645,2.3394 -1.73453,2.3394 -0.35747,0 -0.80504,0.28979 -0.99459,0.64397 -0.447,0.83524 -2.97248,1.83872 -3.610355,1.43456 -0.75461,-0.47812 -1.93805,-0.36597 -2.43315,0.23058 -0.24887,0.29987 -0.6745,0.46003 -0.94584,0.3559 -0.27411,-0.10518 -1.05802,0.35908 -1.76402,1.04474 -0.69886,0.67873 -1.4436,1.20791 -1.65499,1.17595 -0.21138,-0.032 -0.66637,0.0649 -1.0111,0.21529 -0.453756,0.19792 -0.882366,-0.002 -1.552701,-0.72571 l -0.925929,-0.99909 -0.518798,0.78135 c -0.285337,0.42974 -0.801405,0.78135 -1.146814,0.78135 -0.384026,0 -0.774932,0.42145 -1.006175,1.08479 -0.470581,1.34991 -0.943444,1.10408 -1.22337,-0.636 -0.301519,-1.87433 -1.068655,-2.79824 -2.554933,-3.07707 -0.845841,-0.15868 -1.343219,-0.47287 -1.460884,-0.92282 -0.222374,-0.85036 -0.302977,-0.84822 -1.429435,0.0378 -0.866881,0.68189 -0.93406,0.6868 -1.266613,0.0926 -0.19315,-0.34514 -0.679052,-0.89302 -1.079782,-1.21751 -0.679436,-0.55018 -0.799638,-0.55047 -1.781179,-0.004 -0.578919,0.32209 -1.265262,0.78406 -1.525207,1.0266 -0.259947,0.24253 -0.933707,0.44097 -1.497241,0.44097 -0.563535,0 -1.544384,0.31675 -2.179663,0.70389 -1.302896,0.79399 -3.16636,0.66567 -4.263397,-0.29358 -0.493592,-0.43159 -0.700588,-0.45883 -0.910149,-0.11975 -0.149186,0.24139 -0.500288,0.351 -0.780224,0.24358 -0.314805,-0.1208 -0.739264,0.19453 -1.11263,0.82659 -0.938018,1.58794 -2.672366,3.3037 -3.082971,3.04993 -0.610598,-0.37737 -2.484099,0.64727 -2.69301,1.47284 -0.251573,0.99414 -0.902459,1.25297 -3.460669,1.37616 -1.15237,0.0555 -2.468633,0.30074 -2.925029,0.54499 -0.695755,0.37236 -0.995874,0.346 -1.857819,-0.16316 -1.308947,-0.77322 -2.752856,-0.46037 -3.033353,0.65723 -0.115715,0.46104 -0.561912,0.90222 -1.031752,1.02014 -0.455323,0.11428 -0.928514,0.52491 -1.051535,0.91251 -0.315203,0.99312 -0.964339,0.87701 -2.076725,-0.37145 -0.694927,-0.77994 -1.152744,-1.01467 -1.663087,-0.85269 -0.387307,0.12293 -1.053609,0.003 -1.480671,-0.26642 -0.750888,-0.47378 -2.496686,-0.76775 -3.951478,-0.66538 -3.651018,0.25692 -5.770863,0.17835 -6.66029,-0.24685 -0.587438,-0.28083 -1.55448,-0.40772 -2.293056,-0.30087 -1.21673,0.17601 -1.720352,0.27627 -4.057449,0.80775 -0.746862,0.16984 -1.102285,0.0776 -1.340446,-0.348 -0.178255,-0.31851 -0.497145,-0.57912 -0.708649,-0.57912 -0.211501,0 -0.56333,-0.24449 -0.781837,-0.54332 -0.356789,-0.48794 -0.514964,-0.48462 -1.551686,0.0326 -0.634919,0.31674 -1.400556,0.48143 -1.701415,0.36598 -0.30086,-0.11545 -0.951199,0.10802 -1.445197,0.4966 -0.494002,0.38858 -1.172863,0.70652 -1.508587,0.70652 -0.335725,0 -1.027155,0.32781 -1.53652,0.72847 -0.509362,0.40067 -1.083113,0.63146 -1.275006,0.51286 -0.19189,-0.1186 -0.6846504,-0.0359 -1.0950234,0.18369 -0.619022,0.33129 -0.887825,0.2662 -1.577869,-0.38207 l -0.83174,-0.78137 -1.102322,0.92754 c -0.606276,0.51015 -1.33459,0.92754 -1.618474,0.92754 -0.283887,0 -1.148016,0.32235 -1.920289,0.71634 -1.073912,0.54787 -1.87952596,0.682 -3.4255288,0.57032 -1.19513,-0.0863 -2.5261006,0.0471 -3.2561178,0.32649 -3.2574336,1.24655 -17.286111,2.81596 -17.286111,1.93382 z"
       id="path6142"
       inkscape:connector-curvature="0"
       inkscape:export-xdpi="120"
       inkscape:export-ydpi="120" />
    <text
       xml:space="preserve"
       style="font-style:normal;font-variant:normal;font-weight:normal;font-stretch:normal;font-size:9.87777805px;line-height:1.25;font-family:'Fantasque Sans Mono';-inkscape-font-specification:'Fantasque Sans Mono';text-align:center;letter-spacing:0px;word-spacing:0px;text-anchor:middle;fill:#000000;fill-opacity:1;stroke:none;stroke-width:0.26458332"
       x="151.57689"
       y="91.202469"
       id="text6146"
       inkscape:export-xdpi="120"
       inkscape:export-ydpi="120"><tspan
         sodipodi:role="line"
         id="tspan6144"
         x="151.57689"
         y="91.202469"
         style="font-style:normal;font-variant:normal;font-weight:normal;font-stretch:normal;font-size:9.87777805px;font-family:'Fantasque Sans Mono';-inkscape-font-specification:'Fantasque Sans Mono';text-align:center;text-anchor:middle;stroke-width:0.26458332">$19 343</tspan></text>
    <text
       xml:space="preserve"
       style="font-style:normal;font-variant:normal;font-weight:normal;font-stretch:normal;font-size:9.87777805px;line-height:1.25;font-family:'Fantasque Sans Mono';-inkscape-font-specification:'Fantasque Sans Mono';letter-spacing:0px;word-spacing:0px;fill:#000000;fill-opacity:1;stroke:none;stroke-width:0.26458332"
       x="221.39149"
       y="138.47435"
       id="text6146-2"
       inkscape:export-xdpi="120"
       inkscape:export-ydpi="120"><tspan
         sodipodi:role="line"
         id="tspan6144-6"
         x="221.39149"
         y="138.47435"
         style="font-style:normal;font-variant:normal;font-weight:normal;font-stretch:normal;font-size:9.87777805px;font-family:'Fantasque Sans Mono';-inkscape-font-specification:'Fantasque Sans Mono';fill:#000000;stroke-width:0.26458332">$7 900</tspan></text>
    <text
       xml:space="preserve"
       style="font-style:normal;font-variant:normal;font-weight:normal;font-stretch:normal;font-size:9.87777805px;line-height:1.25;font-family:'Fantasque Sans Mono';-inkscape-font-specification:'Fantasque Sans Mono';letter-spacing:0px;word-spacing:0px;fill:#000000;fill-opacity:1;stroke:none;stroke-width:0.26458332"
       x="-37.067112"
       y="171.27577"
       id="text6146-2-8"
       inkscape:export-xdpi="120"
       inkscape:export-ydpi="120"><tspan
         sodipodi:role="line"
         id="tspan6144-6-3"
         x="-37.067112"
         y="171.27577"
         style="font-style:normal;font-variant:normal;font-weight:normal;font-stretch:normal;font-size:9.87777805px;font-family:'Fantasque Sans Mono';-inkscape-font-specification:'Fantasque Sans Mono';stroke-width:0.26458332">$1 183</tspan></text>
    <rect
       style="fill:#000000;fill-opacity:1;fill-rule:nonzero;stroke:none;stroke-width:0.26458332;stroke-opacity:0.37198067"
       id="rect6184"
       width="302.81638"
       height="0.8018086"
       x="-38.754078"
       y="185.28511"
       inkscape:export-xdpi="120"
       inkscape:export-ydpi="120" />
    <rect
       style="fill:#000000;fill-opacity:1;fill-rule:nonzero;stroke:none;stroke-width:0.03968869;stroke-opacity:0.37198067"
       id="rect6184-7"
       width="6.8137774"
       height="0.8018086"
       x="182.27913"
       y="21.618029"
       transform="rotate(90)"
       inkscape:export-xdpi="120"
       inkscape:export-ydpi="120" />
    <rect
       style="fill:#000000;fill-opacity:1;fill-rule:nonzero;stroke:none;stroke-width:0.03968869;stroke-opacity:0.37198067"
       id="rect6184-7-6"
       width="6.8137774"
       height="0.8018086"
       x="182.27913"
       y="-151.6884"
       transform="rotate(90)"
       inkscape:export-xdpi="120"
       inkscape:export-ydpi="120" />
    <rect
       style="fill:#000000;fill-opacity:1;fill-rule:nonzero;stroke:none;stroke-width:0.03968869;stroke-opacity:0.37198067"
       id="rect6184-7-6-9"
       width="6.8137774"
       height="0.8018086"
       x="182.27913"
       y="-236.80922"
       transform="rotate(90)"
       inkscape:export-xdpi="120"
       inkscape:export-ydpi="120" />
    <text
       xml:space="preserve"
       style="font-style:normal;font-variant:normal;font-weight:normal;font-stretch:normal;font-size:8.46666622px;line-height:1.25;font-family:'Fantasque Sans Mono';-inkscape-font-specification:'Fantasque Sans Mono';letter-spacing:0px;word-spacing:0px;fill:#000000;fill-opacity:1;stroke:none;stroke-width:0.26458332"
       x="-44.02689"
       y="197.21428"
       id="text6233"
       inkscape:export-xdpi="120"
       inkscape:export-ydpi="120"><tspan
         sodipodi:role="line"
         id="tspan6231"
         x="-44.02689"
         y="197.21428"
         style="font-style:normal;font-variant:normal;font-weight:normal;font-stretch:normal;font-size:8.46666622px;font-family:'Fantasque Sans Mono';-inkscape-font-specification:'Fantasque Sans Mono';stroke-width:0.26458332">14/04/2017</tspan></text>
    <text
       xml:space="preserve"
       style="font-style:normal;font-variant:normal;font-weight:normal;font-stretch:normal;font-size:8.46666622px;line-height:1.25;font-family:'Fantasque Sans Mono';-inkscape-font-specification:'Fantasque Sans Mono';letter-spacing:0px;word-spacing:0px;fill:#000000;fill-opacity:1;stroke:none;stroke-width:0.26458332"
       x="129.27954"
       y="197.21428"
       id="text6233-2"
       inkscape:export-xdpi="120"
       inkscape:export-ydpi="120"><tspan
         sodipodi:role="line"
         id="tspan6231-5"
         x="129.27954"
         y="197.21428"
         style="font-style:normal;font-variant:normal;font-weight:normal;font-stretch:normal;font-size:8.46666622px;font-family:'Fantasque Sans Mono';-inkscape-font-specification:'Fantasque Sans Mono';stroke-width:0.26458332">16/12/2017</tspan></text>
    <text
       xml:space="preserve"
       style="font-style:normal;font-variant:normal;font-weight:normal;font-stretch:normal;font-size:8.46666622px;line-height:1.25;font-family:'Fantasque Sans Mono';-inkscape-font-specification:'Fantasque Sans Mono';letter-spacing:0px;word-spacing:0px;fill:#000000;fill-opacity:1;stroke:none;stroke-width:0.26458332"
       x="214.5864"
       y="197.21428"
       id="text6233-2-6"
       inkscape:export-xdpi="120"
       inkscape:export-ydpi="120"><tspan
         sodipodi:role="line"
         id="tspan6231-5-9"
         x="214.5864"
         y="197.21428"
         style="font-style:normal;font-variant:normal;font-weight:normal;font-stretch:normal;font-size:8.46666622px;font-family:'Fantasque Sans Mono';-inkscape-font-specification:'Fantasque Sans Mono';stroke-width:0.26458332">13/04/2018</tspan></text>
  </g>
</svg>
